<svg width="405" height="282" viewBox="0 0 405 282" fill="none" xmlns="http://www.w3.org/2000/svg">
<g clip-path="url(#clip0_711_19)">
<path d="M229 111H271H229ZM179 111H221H179ZM130 111H172H130ZM81 111H122H81ZM31 111H73H31ZM81 65H122H81ZM130 65H172H130ZM179 65H221H179ZM179 19H221Z" fill="black"/>
<path d="M179 19H221M229 111H271H229ZM179 111H221H179ZM130 111H172H130ZM81 111H122H81ZM31 111H73H31ZM81 65H122H81ZM130 65H172H130ZM179 65H221H179Z" stroke="#2496ed" stroke-width="38"/>
<path d="M405 113C405 113 387 96 350 102C346 73 315 56 315 56C315 56 286 91 307 130C301 133 291 137 276 137H0.999553C-4.00045 156 -4.00044 282 134 282C233 282 307 236 342 152C394 156 405 113 405 113Z" fill="#2496ed"/>
</g>
<defs>
<clipPath id="clip0_711_19">
<rect width="405" height="282" fill="white"/>
</clipPath>
</defs>
</svg>
