<svg width="106" height="24" viewBox="0 0 106 24" fill="none" xmlns="http://www.w3.org/2000/svg">
<path d="M33.0001 23.753V0.707996H34.2501V4.333C34.3977 4.17226 34.534 4.00152 34.6581 3.822C35.7021 1.656 37.9041 0.288996 40.3081 0.315996C43.1581 0.230996 45.4741 1.286 46.8351 3.822C47.7011 5.39747 48.1777 7.15728 48.225 8.95448C48.2723 10.7517 47.889 12.5341 47.1071 14.153C45.8391 16.995 42.7071 18.408 39.3541 17.889C38.3106 17.8003 37.3059 17.4516 36.4318 16.8748C35.5577 16.298 34.842 15.5115 34.3501 14.587V23.752L33.0001 23.753ZM34.2501 8.86L34.5301 11.566C35.0241 14.646 36.8451 16.466 39.7041 16.808C41.0467 17.0287 42.4243 16.777 43.6021 16.0958C44.7799 15.4145 45.685 14.3459 46.1631 13.072C47.2751 10.422 47.1931 7.422 45.9431 4.834C45.4328 3.69208 44.5647 2.74727 43.47 2.14236C42.3753 1.53745 41.1134 1.3053 39.8751 1.481C38.7127 1.56556 37.6055 2.01003 36.7073 2.75266C35.8091 3.4953 35.1645 4.49923 34.8631 5.625C34.5968 6.69034 34.3922 7.77013 34.2501 8.859V8.86ZM73.7481 11.992C73.5585 13.6146 72.7861 15.1131 71.5744 16.2088C70.3628 17.3046 68.7945 17.923 67.1611 17.949C61.9191 18.213 59.4591 14.732 59.0681 10.715C58.7962 8.53356 59.1503 6.31978 60.0891 4.332C60.7424 2.96839 61.813 1.84819 63.1456 1.1337C64.4782 0.419211 66.0037 0.147523 67.5011 0.357996C68.9245 0.478989 70.2739 1.04459 71.3582 1.97474C72.4425 2.9049 73.2069 4.1525 73.5431 5.541C73.8094 6.80583 74.0053 8.08446 74.1301 9.371H60.3631C60.1081 13.013 62.0651 15.941 64.8391 16.647C68.2941 17.497 71.2471 16 72.3191 12.715C72.5571 11.872 72.9911 11.753 73.7571 11.992H73.7481ZM60.3531 8.205H72.6671C72.5901 4.325 70.1741 1.505 66.8971 1.473C63.1971 1.413 60.5141 4.12 60.3531 8.205V8.205ZM76.2931 12.077H77.5001C77.5444 12.9662 77.8332 13.826 78.3346 14.5617C78.836 15.2974 79.5306 15.8806 80.3421 16.247C81.3609 16.7055 82.4701 16.9284 83.587 16.8989C84.7039 16.8695 85.7998 16.5885 86.7931 16.077C87.3345 15.8332 87.7881 15.4291 88.0925 14.9192C88.3969 14.4093 88.5374 13.8183 88.4951 13.226C88.5262 12.6548 88.3703 12.0889 88.0508 11.6143C87.7314 11.1397 87.266 10.7822 86.7251 10.596C85.3971 10.102 83.9851 9.83 82.6321 9.396C81.2242 8.99516 79.8475 8.49182 78.5131 7.89C76.3331 6.826 76.1981 2.682 78.6661 1.37C79.9298 0.656907 81.3519 0.271605 82.8028 0.249246C84.2536 0.226888 85.687 0.568185 86.9721 1.242C88.5661 2.122 89.4471 3.899 89.1851 5.702H88.1501C88.1501 5.652 88.0561 5.60799 88.0561 5.55699C87.9281 2.25699 85.1541 1.225 82.1761 1.515C81.2761 1.615 80.4231 1.887 79.6231 2.289C79.1421 2.50861 78.7414 2.87228 78.4762 3.32966C78.2111 3.78705 78.0947 4.31553 78.1431 4.84199C78.1441 5.36885 78.3082 5.88246 78.613 6.31222C78.9178 6.74198 79.3482 7.06679 79.8451 7.242C81.1451 7.719 82.5251 8.025 83.8701 8.399L87.1201 9.249C87.8587 9.49146 88.5064 9.95244 88.9775 10.571C89.4485 11.1895 89.7207 11.9364 89.7581 12.713C90.0181 14.458 89.1281 16.173 87.5541 16.968C84.7121 18.576 80.0311 18.151 77.9461 16.118C76.8791 15.045 76.2841 13.588 76.2961 12.076L76.2931 12.077ZM105.073 5.70299H103.941C103.941 5.54999 103.881 5.403 103.864 5.286C103.846 4.43747 103.537 3.62095 102.988 2.97334C102.44 2.32572 101.685 1.88639 100.851 1.729C99.2778 1.27777 97.5996 1.35862 96.0771 1.959C95.475 2.13129 94.9449 2.49383 94.566 2.99241C94.1871 3.49098 93.9798 4.09881 93.9751 4.725C93.9535 5.33985 94.145 5.94329 94.517 6.43326C94.8891 6.92323 95.419 7.26967 96.0171 7.414L101.191 8.742C101.751 8.87619 102.302 9.04382 102.841 9.244C104.491 9.844 105.611 11.376 105.661 13.127C105.686 13.9841 105.451 14.8286 104.987 15.5496C104.523 16.2707 103.851 16.8345 103.061 17.167C101.86 17.7125 100.559 18.0011 99.2397 18.0144C97.9208 18.0276 96.6137 17.7652 95.4021 17.244C94.4057 16.8143 93.5648 16.0897 92.9927 15.1677C92.4206 14.2457 92.1446 13.1706 92.2021 12.087H93.3081C93.7241 14.092 95.1011 15.762 96.9901 16.552C98.8791 17.342 101.036 17.148 102.754 16.036C103.27 15.7679 103.697 15.3578 103.987 14.8541C104.277 14.3504 104.416 13.7743 104.388 13.194C104.414 12.6224 104.252 12.058 103.928 11.5864C103.604 11.1149 103.135 10.7619 102.592 10.581C101.264 10.087 99.8521 9.824 98.4991 9.381C97.0833 8.98633 95.6983 8.48867 94.3551 7.892C92.2271 6.845 92.0571 2.735 94.4831 1.424C95.7624 0.680979 97.2123 0.281811 98.6917 0.265339C100.171 0.248866 101.629 0.61565 102.925 1.33C103.666 1.77225 104.263 2.42043 104.642 3.19561C105.021 3.97079 105.167 4.83951 105.061 5.69599L105.073 5.70299ZM30.9431 17.533C30.4975 17.7015 30.0056 17.701 29.5603 17.5317C29.115 17.3624 28.7471 17.036 28.5261 16.614L24.1261 10.529L23.4881 9.679L18.3821 16.623C18.1739 17.0268 17.8259 17.3411 17.403 17.5071C16.9802 17.6731 16.5113 17.6794 16.0841 17.525L22.6621 8.7L16.5421 0.725996C17.4501 0.397996 18.4621 0.753996 18.9671 1.576L23.5271 7.736L28.1141 1.6C28.3237 1.20308 28.6719 0.897069 29.0925 0.740162C29.5131 0.583255 29.9767 0.586399 30.3951 0.748996L28.0201 3.9L24.8031 8.087C24.7138 8.16673 24.6423 8.26442 24.5934 8.37368C24.5445 8.48293 24.5192 8.60129 24.5192 8.721C24.5192 8.8407 24.5445 8.95906 24.5934 9.06831C24.6423 9.17757 24.7138 9.27526 24.8031 9.355L30.9301 17.533H30.9431ZM58.8731 0.640997V1.841C58.0123 1.78454 57.1493 1.90919 56.3398 2.20689C55.5302 2.50459 54.792 2.96874 54.1729 3.56936C53.5538 4.16999 53.0676 4.89375 52.7455 5.69394C52.4234 6.49413 52.2727 7.35296 52.3031 8.215C52.3031 11.0177 52.3031 13.8203 52.3031 16.623V17.576H51.0861V0.715995H52.2861V4.171C53.7581 1.651 56.0301 0.715997 58.8811 0.647997L58.8731 0.640997ZM0.333055 8.59L0.869055 5.943C2.34105 0.708996 8.34106 -1.469 12.4691 1.773C14.8861 3.671 15.4891 6.36 15.3711 9.39H1.75405C1.53405 14.802 5.43906 18.07 10.4341 16.402C12.0801 15.802 13.3191 14.434 13.7271 12.734C13.9911 11.884 14.4271 11.738 15.2251 11.984C15.092 13.0201 14.7257 14.0126 14.1538 14.8868C13.5818 15.7609 12.8191 16.4941 11.9231 17.031C10.4426 17.8406 8.74407 18.1614 7.07031 17.9475C5.39655 17.7336 3.83329 16.9959 2.60405 15.84C1.38805 14.473 0.654055 12.745 0.511055 10.92C0.511055 10.62 0.411055 10.34 0.341055 10.07C0.334388 9.56533 0.331055 9.072 0.331055 8.59H0.333055ZM1.77105 8.224H14.0851C14.0081 4.301 11.5321 1.518 8.23005 1.492C4.55405 1.442 1.92405 4.164 1.76205 8.207L1.77105 8.224Z" fill="black"/>
</svg>
