<svg width="12" height="17" viewBox="0 0 12 17" fill="none" xmlns="http://www.w3.org/2000/svg">
<mask id="mask0_501_63" style="mask-type:alpha" maskUnits="userSpaceOnUse" x="0" y="0" width="12" height="17">
<path d="M10.3775 3.78304C10.3545 3.64079 10.2571 3.52365 10.1248 3.47925C9.99259 3.43485 9.84752 3.47058 9.7486 3.57191L7.83416 5.57766L6.31742 2.59302C6.25659 2.46518 6.13111 2.38425 5.99372 2.38425C5.85633 2.38425 5.73085 2.46518 5.67003 2.59302L4.84691 4.2245L2.76601 0.21298C2.59954 -0.113315 2.12787 -0.0269428 2.07237 0.337741L0.074707 13.6391L5.42956 16.7581C5.76654 16.95 6.17466 16.95 6.51164 16.7581L11.9127 13.6391L10.3775 3.78304Z" fill="white"/>
</mask>
<g mask="url(#mask0_501_63)">
<path d="M10.3775 3.78304C10.3545 3.64079 10.2571 3.52365 10.1248 3.47925C9.99259 3.43485 9.84752 3.47058 9.7486 3.57191L7.83416 5.57766L6.31742 2.59302C6.25659 2.46518 6.13111 2.38425 5.99372 2.38425C5.85633 2.38425 5.73085 2.46518 5.67003 2.59302L4.84691 4.2245L2.76601 0.21298C2.59954 -0.113315 2.12787 -0.0269428 2.07237 0.337741L0.074707 13.6391L5.42956 16.7581C5.76654 16.95 6.17466 16.95 6.51164 16.7581L11.9127 13.6391L10.3775 3.78304Z" fill="url(#paint0_linear_501_63)"/>
<path d="M0.074707 13.6391L2.08162 0.337741C2.13711 -0.0269428 2.60878 -0.113315 2.77526 0.21298L4.84691 4.2245L5.67003 2.59302C5.73366 2.46585 5.86025 2.38604 5.99835 2.38604C6.13644 2.38604 6.26303 2.46585 6.32667 2.59302L11.9127 13.6391H0.074707Z" fill="#FFA000"/>
<path d="M6.99255 8.45673L4.83766 4.22449L0.074707 13.6391L6.99255 8.45673Z" fill="#F57C00"/>
<path d="M11.9127 13.6391L10.3775 3.78301C10.3545 3.64076 10.2571 3.52362 10.1248 3.47922C9.99259 3.43482 9.84752 3.47055 9.7486 3.57188L0.074707 13.6391L5.42956 16.7581C5.76654 16.95 6.17466 16.95 6.51163 16.7581L11.9127 13.6391Z" fill="#FFCA28"/>
<path d="M10.3775 3.78304C10.3545 3.64079 10.2571 3.52365 10.1248 3.47925C9.99257 3.43485 9.84749 3.47058 9.74857 3.57191L7.83414 5.57766L6.31739 2.59302C6.25657 2.46518 6.13108 2.38425 5.99369 2.38425C5.8563 2.38425 5.73082 2.46518 5.67 2.59302L4.84688 4.2245L2.76598 0.21298C2.59951 -0.113315 2.12784 -0.0269428 2.07235 0.337741L0.0746782 13.6391H0.0654297L0.0746782 13.6487L0.130169 13.6775L7.82489 5.67363L9.74857 3.67747C9.84749 3.57614 9.99257 3.54042 10.1248 3.58482C10.2571 3.62922 10.3545 3.74635 10.3775 3.8886L11.8942 13.6487L11.9127 13.6391L10.3775 3.78304ZM0.0931751 13.6199L2.08159 0.43371C2.13708 0.0690265 2.60876 -0.0173459 2.77523 0.30895L4.84688 4.32047L5.67 2.68899C5.73363 2.56182 5.86023 2.48201 5.99832 2.48201C6.13641 2.48201 6.263 2.56182 6.32664 2.68899L7.80639 5.60646L0.0931751 13.6199Z" fill="white" fill-opacity="0.2"/>
<path opacity="0.2" d="M6.51163 16.6621C6.17466 16.8541 5.76654 16.8541 5.42956 16.6621L0.0839555 13.5527L0.074707 13.6391L5.42956 16.7581C5.76654 16.9501 6.17466 16.9501 6.51163 16.7581L11.9127 13.6391L11.9035 13.5527L6.51163 16.6621Z" fill="#A52714"/>
<path d="M10.3775 3.78304C10.3545 3.64079 10.2571 3.52365 10.1248 3.47925C9.99259 3.43485 9.84752 3.47058 9.7486 3.57191L7.83416 5.57766L6.31742 2.59302C6.25659 2.46518 6.13111 2.38425 5.99372 2.38425C5.85633 2.38425 5.73085 2.46518 5.67003 2.59302L4.84691 4.2245L2.76601 0.21298C2.59954 -0.113315 2.12787 -0.0269428 2.07237 0.337741L0.074707 13.6391L5.42956 16.7581C5.76654 16.95 6.17466 16.95 6.51164 16.7581L11.9127 13.6391L10.3775 3.78304Z" fill="url(#paint1_linear_501_63)"/>
</g>
<defs>
<linearGradient id="paint0_linear_501_63" x1="-0.337466" y1="2.88637" x2="14.6494" y2="10.5244" gradientUnits="userSpaceOnUse">
<stop stop-color="white" stop-opacity="0.1"/>
<stop offset="1" stop-color="white" stop-opacity="0"/>
</linearGradient>
<linearGradient id="paint1_linear_501_63" x1="-0.337466" y1="2.88637" x2="14.6494" y2="10.5244" gradientUnits="userSpaceOnUse">
<stop stop-color="white" stop-opacity="0.1"/>
<stop offset="1" stop-color="white" stop-opacity="0"/>
</linearGradient>
</defs>
</svg>
