<svg width="192" height="192" viewBox="0 0 192 192" fill="none" xmlns="http://www.w3.org/2000/svg">
<path d="M85.2237 0.667562C40.974 5.48993 5.38193 41.1754 0.572183 84.5767C-4.23756 129.907 21.7351 170.415 61.175 185.846C64.0608 186.811 66.9466 184.882 66.9466 181.024V165.592C66.9466 165.592 63.0989 166.557 58.2891 166.557C44.8218 166.557 39.0501 154.983 38.0882 148.232C37.1262 144.374 35.2023 141.481 32.3165 138.587C29.4306 137.623 28.4687 137.623 28.4687 136.658C28.4687 134.729 31.3545 134.729 32.3165 134.729C38.0882 134.729 42.8979 141.481 44.8218 144.374C49.6316 152.09 55.4033 154.019 58.2891 154.019C62.1369 154.019 65.0228 153.054 66.9466 152.09C67.9086 145.338 70.7944 138.587 76.5661 134.729C54.4413 129.907 38.0882 117.369 38.0882 96.1504C38.0882 85.5412 42.8979 74.932 49.6316 67.2162C48.6696 65.2872 47.7077 60.4649 47.7077 53.7136C47.7077 49.8557 47.7077 45.0333 49.6316 41.1754C49.6316 39.2465 51.5555 38.282 52.5174 38.282H53.4794C58.2891 39.2465 67.9086 42.1399 76.5661 50.8202C82.3378 48.8912 89.0715 47.9267 95.8051 47.9267C102.539 47.9267 109.272 48.8912 115.044 50.8202C123.702 42.1399 134.283 39.2465 139.093 38.282H140.055C141.979 38.282 142.941 39.2465 143.903 41.1754C143.903 45.0333 143.903 49.8557 143.903 53.7136C143.903 61.4294 142.941 65.2872 141.979 67.2162C148.712 74.932 153.522 84.5767 153.522 96.1504C153.522 117.369 137.169 129.907 115.044 134.729C120.816 139.552 124.664 148.232 124.664 156.912V181.988C124.664 184.882 127.549 187.775 131.397 186.811C166.989 172.344 192 137.623 192 97.1149C192 39.2465 142.941 -6.08375 85.2237 0.667562Z" fill="white"/>
</svg>
