<svg width="16" height="15" viewBox="0 0 16 15" fill="none" xmlns="http://www.w3.org/2000/svg">
<g clip-path="url(#clip0_206_35)">
<path d="M15.0962 0H0.621919C0.619575 0 0.617676 0.0019675 0.617676 0.00439453V14.9956C0.617676 14.998 0.619575 15 0.621919 15H15.0962C15.0985 15 15.1004 14.998 15.1004 14.9956V0.00439453C15.1004 0.0019675 15.0985 0 15.0962 0Z" fill="#F7DF1E"/>
<path d="M9.78249 10.8398C10.0654 11.3379 10.4614 11.6894 11.112 11.6894C11.6777 11.6894 12.0455 11.3965 12.0455 10.9863C12.0455 10.5176 11.6777 10.3418 11.0554 10.0488L10.716 9.90236C9.72594 9.46292 9.07533 8.93553 9.07533 7.79298C9.07533 6.73826 9.83911 5.91797 11.0554 5.91797C11.9323 5.91797 12.5546 6.24025 12.9789 7.06056L11.9323 7.76366C11.706 7.32422 11.4514 7.14845 11.0554 7.14845C10.6594 7.14845 10.4048 7.41211 10.4048 7.76366C10.4048 8.17385 10.6594 8.34963 11.2534 8.61329L11.5929 8.75975C12.7526 9.28708 13.4032 9.78515 13.4032 10.9863C13.4032 12.2461 12.4414 12.9492 11.1403 12.9492C9.86735 12.9492 9.04708 12.334 8.65104 11.5137L9.78249 10.8398ZM4.97378 10.957C5.20007 11.3379 5.3698 11.6894 5.85066 11.6894C6.30325 11.6894 6.58612 11.5137 6.58612 10.8106V5.94727H7.94387V10.7519C7.94387 12.2168 7.12355 12.8613 5.90724 12.8613C4.80406 12.8613 4.18175 12.2754 3.87061 11.5722L4.97378 10.957Z" fill="black"/>
</g>
<defs>
<clipPath id="clip0_206_35">
<rect width="14.4828" height="15" fill="white" transform="translate(0.617676)"/>
</clipPath>
</defs>
</svg>
