<svg width="131" height="289" viewBox="0 0 131 289" fill="none" xmlns="http://www.w3.org/2000/svg">
<g clip-path="url(#clip0_711_2)">
<path d="M128.44 114.34C113.13 46.8 81.2202 28.82 73.0802 16.11C69.7237 10.5109 66.7502 4.69095 64.1802 -1.31C63.7502 4.69 62.9602 8.47 57.8602 13.02C47.6202 22.15 4.13023 57.59 0.470228 134.33C-2.93977 205.88 53.0702 250 60.4702 254.56C66.1602 257.36 73.0902 254.62 76.4702 252.05C103.47 233.52 140.36 184.12 128.47 114.34" fill="#10AA50"/>
<path d="M66.5 216.46C65.09 234.17 64.08 244.46 60.5 254.58C60.5 254.58 62.85 271.44 64.5 289.3H70.34C71.733 276.723 73.86 264.239 76.71 251.91C69.15 248.19 66.79 232 66.5 216.46Z" fill="#B8C4C2"/>
<path d="M76.7001 251.92C69.0601 248.39 66.8501 231.86 66.5101 216.46C68.3995 191.057 68.9503 165.571 68.1601 140.11C67.7601 126.75 68.3501 16.37 64.8701 0.210007C67.2506 5.68323 69.9934 10.9917 73.0801 16.1C81.2201 28.82 113.14 46.8 128.44 114.34C140.36 184 103.67 233.27 76.7001 251.92Z" fill="#12924F"/>
</g>
<defs>
<clipPath id="clip0_711_2">
<rect width="131" height="289" fill="white"/>
</clipPath>
</defs>
</svg>
