<svg width="15" height="15" viewBox="0 0 15 15" fill="none" xmlns="http://www.w3.org/2000/svg">
<path d="M12.749 3.55472L7.75438 0.554136C7.43972 0.368511 7.02753 0.368511 6.71038 0.554136L1.67671 3.55472C1.3521 3.7482 1.13135 4.11183 1.13135 4.50078V10.494C1.13135 10.8829 1.35674 11.2467 1.68147 11.4412L3.00856 12.225C3.64524 12.5498 3.82163 12.5498 4.11129 12.5498C5.05425 12.5498 5.54395 11.9593 5.54395 10.9293V5.01253C5.54406 4.92898 5.59441 4.80464 5.5151 4.80464H4.87899C4.79843 4.80464 4.63889 4.92898 4.63889 5.01242V10.9292C4.63889 11.3858 4.22975 11.8401 3.48457 11.4542L2.11301 10.6324C2.06526 10.6054 2.03652 10.5512 2.03652 10.494V4.50078C2.03652 4.44429 2.08891 4.38757 2.13733 4.35863L7.15855 1.3632C7.20551 1.33566 7.27192 1.33566 7.31865 1.3632L12.2929 4.35793C12.3406 4.38757 12.333 4.44253 12.333 4.50078V10.494C12.333 10.5512 12.3434 10.6068 12.2964 10.6344L7.30293 13.6316C7.26016 13.6582 7.20449 13.6582 7.15753 13.6316L5.87705 12.8407C5.83847 12.8175 5.79197 12.8091 5.75486 12.8306C5.39901 13.0395 5.33293 13.0673 4.99915 13.1872C4.91689 13.2168 4.7956 13.2683 5.04531 13.4132L6.71966 14.4391C6.87987 14.5352 7.06215 14.5851 7.24545 14.5851C7.43123 14.5851 7.61306 14.5352 7.77339 14.4391L12.7491 11.4412C13.074 11.2453 13.2381 10.8829 13.2381 10.494V4.50078C13.238 4.11183 13.0739 3.74914 12.749 3.55472ZM8.79442 9.54429C7.46755 9.54429 7.17541 9.16519 7.07799 8.48187C7.06645 8.40828 7.00626 8.32027 6.93384 8.32027H6.28551C6.20529 8.32027 6.14068 8.42105 6.14068 8.50379C6.14068 9.37871 6.60006 10.4388 8.79442 10.4388C10.3828 10.4388 11.2936 9.79953 11.2936 8.6682C11.2936 7.54648 10.5619 7.25211 9.0214 7.04093C7.46427 6.82777 7.30609 6.72007 7.30609 6.34226C7.30609 6.03078 7.44006 5.61535 8.59302 5.61535C9.62311 5.61535 10.0028 5.84433 10.1591 6.56351C10.1725 6.63113 10.2322 6.67964 10.2995 6.67964H10.9505C10.9906 6.67964 11.0287 6.66289 11.0568 6.63324C11.0841 6.60136 11.0983 6.5614 11.0948 6.51851C10.9938 5.27996 10.1995 4.70281 8.59291 4.70281C7.16364 4.70281 6.3112 5.32789 6.3112 6.37566C6.3112 7.51214 7.15946 7.82621 8.53136 7.96671C10.1725 8.13336 10.3002 8.38179 10.3002 8.71613C10.3002 9.29691 9.85008 9.54429 8.79442 9.54429Z" fill="#83CD29"/>
</svg>
