<svg width="122" height="122" viewBox="0 0 122 122" fill="none" xmlns="http://www.w3.org/2000/svg">
<circle cx="61" cy="61" r="61" fill="#121C24"/>
<path d="M25.6821 48.4424V52.0679C24.6509 52.1001 23.9258 52.2988 23.5068 52.6641C23.0879 53.0186 22.8784 53.5771 22.8784 54.3398V59.1577C22.814 61.1665 21.5571 62.3589 19.1079 62.7349V62.9282C21.6216 63.3042 22.8784 64.4429 22.8784 66.3442V71.3071C22.8784 72.0483 23.0771 72.6016 23.4746 72.9668C23.8721 73.332 24.6079 73.5308 25.6821 73.563V77.2207C23.0718 77.2207 21.2402 76.8823 20.1875 76.2056C19.1455 75.5503 18.6245 74.3901 18.6245 72.7251V67.6494C18.6245 66.7148 18.27 66.0005 17.561 65.5063C16.8628 65.0122 15.8423 64.7651 14.4995 64.7651V60.9141C15.8423 60.9141 16.8628 60.6777 17.561 60.2051C18.27 59.7324 18.6245 59.0557 18.6245 58.1748V52.9219C18.6245 51.2676 19.1455 50.1128 20.1875 49.4575C21.2402 48.7808 23.0718 48.4424 25.6821 48.4424ZM38.6533 55.2422C40.7373 54.1572 43.02 53.6147 45.5015 53.6147C47.9829 53.6147 49.8574 54.1465 51.125 55.21C52.4033 56.2734 53.0425 57.8687 53.0425 59.9956V72H49.6104L48.6597 69.5508H48.5308C47.7036 70.6035 46.855 71.3286 45.9849 71.7261C45.1147 72.1235 43.9707 72.3223 42.5527 72.3223C40.834 72.3223 39.4697 71.8281 38.46 70.8398C37.4717 69.8516 36.9775 68.4282 36.9775 66.5698C36.9775 64.7114 37.6382 63.3257 38.9595 62.4126C40.2808 61.4888 42.3057 60.9785 45.0342 60.8818L48.1602 60.7852V59.9956C48.1602 58.1694 47.2256 57.2563 45.3564 57.2563C43.917 57.2563 42.2251 57.6914 40.2808 58.5615L38.6533 55.2422ZM42.021 66.6504C42.021 68.0361 42.8159 68.729 44.4058 68.729C45.5552 68.729 46.4683 68.4014 47.145 67.7461C47.8218 67.0908 48.1602 66.2207 48.1602 65.1357V63.6533L46.2588 63.7178C44.8301 63.7607 43.7666 64.0186 43.0684 64.4912C42.3701 64.9639 42.021 65.6836 42.021 66.6504ZM63.0327 56.3379C64.1714 54.5439 65.8364 53.647 68.0278 53.647C70.23 53.647 71.9326 54.4741 73.1357 56.1284C74.3389 57.7505 74.9404 60.0171 74.9404 62.9282C74.9512 65.8286 74.3281 68.1221 73.0713 69.8086C71.8252 71.4844 70.1763 72.3223 68.1245 72.3223C68.0923 72.3223 68.0547 72.3223 68.0117 72.3223C65.9062 72.3223 64.2466 71.5542 63.0327 70.0181H62.7749C62.9468 71.4683 63.0327 72.3384 63.0327 72.6284V79.9277H58.1182V53.9854H62.1143L62.8071 56.3379H63.0327ZM63.0327 62.9282C63.0327 64.8511 63.3174 66.2368 63.8867 67.0854C64.4561 67.9233 65.3691 68.3423 66.626 68.3423C68.8281 68.3423 69.9292 66.5269 69.9292 62.896C69.9292 61.1128 69.6553 59.7808 69.1074 58.8999C68.5596 58.019 67.6895 57.5786 66.4971 57.5786C65.3154 57.5786 64.4453 57.9546 63.8867 58.7065C63.3389 59.4585 63.0542 60.6885 63.0327 62.3965V62.9282ZM78.7915 49.3447C78.7915 47.7334 79.6831 46.9277 81.4663 46.9277C83.2495 46.9277 84.1411 47.728 84.1411 49.3286C84.1411 50.1021 83.9155 50.6982 83.4644 51.1172C83.0132 51.5361 82.3472 51.7456 81.4663 51.7456C79.6831 51.7456 78.7915 50.9453 78.7915 49.3447ZM83.9155 72H79.001V53.9854H83.9155V72ZM96.4033 48.4424C98.1973 48.4424 99.6045 48.5874 100.625 48.8774C101.646 49.1567 102.371 49.6079 102.8 50.231C103.241 50.8433 103.461 51.7402 103.461 52.9219V58.207C103.461 59.1201 103.794 59.8022 104.46 60.2534C105.126 60.6938 106.168 60.9141 107.586 60.9141V64.7651C106.2 64.7651 105.164 64.9961 104.476 65.458C103.799 65.9092 103.461 66.6396 103.461 67.6494V72.7251C103.461 73.9175 103.241 74.8198 102.8 75.4321C102.36 76.0552 101.629 76.5063 100.609 76.7856C99.5991 77.0757 98.1973 77.2207 96.4033 77.2207V73.563C97.4453 73.5415 98.1704 73.3535 98.5786 72.999C98.9976 72.6553 99.207 72.0913 99.207 71.3071V66.312C99.207 65.3882 99.5239 64.6416 100.158 64.0723C100.792 63.4922 101.726 63.1108 102.961 62.9282V62.7349C100.523 62.3589 99.2715 61.1665 99.207 59.1577V54.3398C99.207 53.5879 99.0083 53.0293 98.6108 52.6641C98.2134 52.2988 97.4775 52.1001 96.4033 52.0679V48.4424Z" fill="white"/>
</svg>
