<svg width="116" height="116" viewBox="0 0 116 116" fill="none" xmlns="http://www.w3.org/2000/svg">
<g clip-path="url(#clip0_711_14)">
<path d="M113.844 52.8842L63.1803 2.27717C60.2653 -0.637638 55.5335 -0.637638 52.6148 2.27717L42.095 12.7875L55.439 26.1182C58.5411 25.0718 62.0968 25.7734 64.5684 28.243C67.0528 30.728 67.7501 34.3105 66.6764 37.4199L79.5376 50.2684C82.6491 49.1972 86.2391 49.8892 88.7236 52.3757C92.1972 55.8448 92.1972 61.4662 88.7236 64.9362C85.2495 68.4073 79.6226 68.4073 76.1466 64.9362C73.5347 62.3249 72.8887 58.4911 74.2116 55.2763L62.2171 43.2937L62.2161 74.8256C63.063 75.2445 63.8622 75.8034 64.5679 76.5054C68.0404 79.9741 68.0404 85.5944 64.5679 89.0689C61.0943 92.5375 55.4648 92.5375 51.9949 89.0689C48.5219 85.5947 48.5219 79.9744 51.9949 76.5054C52.8532 75.6494 53.8464 75.0016 54.9061 74.5673V42.7424C53.8459 42.3099 52.8539 41.6669 51.9943 40.8041C49.3636 38.1781 48.73 34.3209 50.0792 31.0936L36.9247 17.9501L2.18896 52.6504C-0.729653 55.5675 -0.729653 60.2946 2.18896 63.2096L52.8494 113.817C55.7661 116.732 60.4962 116.732 63.417 113.817L113.843 63.4487C116.761 60.5324 116.761 55.8039 113.843 52.8885" fill="#F05133"/>
</g>
<defs>
<clipPath id="clip0_711_14">
<rect width="116" height="116" fill="white"/>
</clipPath>
</defs>
</svg>
