<svg width="111" height="113" viewBox="0 0 111 113" fill="none" xmlns="http://www.w3.org/2000/svg">
<g clip-path="url(#clip0_707_2)">
<path d="M54.5101 0.397983C49.9264 0.419282 45.5492 0.810201 41.6976 1.49173C30.3514 3.49624 28.2913 7.69183 28.2913 15.4292V25.648H55.1038V29.0542H28.2913H18.2288C10.4364 29.0542 3.61308 33.738 1.47884 42.648C-0.982976 52.8609 -1.09217 59.234 1.47884 69.898C3.38477 77.8358 7.93639 83.4917 15.7288 83.4917H24.9476V71.2417C24.9476 62.3918 32.6047 54.5855 41.6976 54.5855H68.4788C75.9338 54.5855 81.8851 48.4473 81.8851 40.9605V15.4292C81.8851 8.16289 75.7551 2.70446 68.4788 1.49173C63.8729 0.725008 59.0937 0.376685 54.5101 0.397983ZM40.0101 8.61673C42.7796 8.61673 45.0413 10.9154 45.0413 13.7417C45.0413 16.5581 42.7796 18.8355 40.0101 18.8355C37.2306 18.8355 34.9788 16.5581 34.9788 13.7417C34.9788 10.9154 37.2306 8.61673 40.0101 8.61673Z" fill="url(#paint0_linear_707_2)"/>
<path d="M85.229 29.0542V40.9605C85.229 50.1912 77.4031 57.9605 68.479 57.9605H41.6978C34.3619 57.9605 28.2915 64.239 28.2915 71.5855V97.1167C28.2915 104.383 34.6101 108.657 41.6978 110.742C50.1851 113.237 58.324 113.688 68.479 110.742C75.2292 108.787 81.8853 104.854 81.8853 97.1167V86.898H55.104V83.4917H81.8853H95.2915C103.084 83.4917 105.988 78.0563 108.698 69.898C111.497 61.4991 111.378 53.4222 108.698 42.648C106.772 34.8905 103.094 29.0542 95.2915 29.0542H85.229ZM70.1665 93.7105C72.946 93.7105 75.1978 95.9879 75.1978 98.8042C75.1978 101.631 72.946 103.929 70.1665 103.929C67.397 103.929 65.1353 101.631 65.1353 98.8042C65.1353 95.9879 67.397 93.7105 70.1665 93.7105Z" fill="url(#paint1_linear_707_2)"/>
</g>
<defs>
<linearGradient id="paint0_linear_707_2" x1="-0.408691" y1="0.397064" x2="61.418" y2="53.082" gradientUnits="userSpaceOnUse">
<stop stop-color="#5A9FD4"/>
<stop offset="1" stop-color="#306998"/>
</linearGradient>
<linearGradient id="paint1_linear_707_2" x1="69.5222" y1="97.9451" x2="47.3411" y2="66.8628" gradientUnits="userSpaceOnUse">
<stop stop-color="#FFD43B"/>
<stop offset="1" stop-color="#FFE873"/>
</linearGradient>
<clipPath id="clip0_707_2">
<rect width="111" height="113" fill="white"/>
</clipPath>
</defs>
</svg>
