<svg width="106" height="106" viewBox="0 0 106 106" fill="none" xmlns="http://www.w3.org/2000/svg">
<path d="M53.0503 5.67999C26.9903 5.67999 5.78027 26.9 5.78027 52.95C5.78027 79 27.0003 100.22 53.0503 100.22C79.1003 100.22 100.32 79 100.32 52.95C100.32 26.9 79.1003 5.67999 53.0503 5.67999V5.67999ZM52.9803 9.87999C53.7885 9.90092 54.5566 10.2378 55.1208 10.8188C55.6849 11.3998 56.0005 12.1789 56.0003 12.99C56.0003 13.8148 55.6726 14.6059 55.0894 15.1891C54.5061 15.7723 53.7151 16.1 52.8903 16.1C52.0655 16.1 51.2744 15.7723 50.6912 15.1891C50.1079 14.6059 49.7803 13.8148 49.7803 12.99C49.7801 12.5739 49.8634 12.162 50.0253 11.7787C50.1872 11.3954 50.4244 11.0484 50.7228 10.7584C51.0211 10.4685 51.3747 10.2413 51.7625 10.0904C52.1502 9.9395 52.5644 9.86795 52.9803 9.87999V9.87999ZM60.1003 15C65.5599 16.0226 70.7315 18.2214 75.2559 21.4438C79.7803 24.6661 83.549 28.8347 86.3003 33.66L82.6303 41.94C82.0003 43.37 82.6503 45.05 84.0703 45.69L91.1303 48.82C91.3493 51.0268 91.376 53.2485 91.2103 55.46H87.2803C86.8903 55.46 86.7303 55.72 86.7303 56.1V57.9C86.7303 62.14 84.3403 63.07 82.2403 63.3C80.2403 63.53 78.0303 62.46 77.7503 61.24C76.5703 54.61 74.6103 53.2 71.5103 50.75C75.3603 48.31 79.3603 44.7 79.3603 39.88C79.3603 34.67 75.7903 31.39 73.3603 29.78C69.9403 27.53 66.1603 27.08 65.1403 27.08H24.5403C30.1543 20.8084 37.6793 16.5626 45.9503 15L50.7403 20.02C51.8203 21.15 53.6103 21.2 54.7403 20.11L60.1003 15ZM15.9003 38.02C16.7094 38.0434 17.4775 38.3814 18.0414 38.9621C18.6053 39.5428 18.9206 40.3205 18.9203 41.13C18.9203 41.9548 18.5926 42.7459 18.0094 43.3291C17.4261 43.9123 16.6351 44.24 15.8103 44.24C14.9855 44.24 14.1944 43.9123 13.6112 43.3291C13.0279 42.7459 12.7003 41.9548 12.7003 41.13C12.7001 40.7139 12.7834 40.302 12.9453 39.9187C13.1072 39.5354 13.3444 39.1884 13.6428 38.8984C13.9411 38.6085 14.2947 38.3813 14.6825 38.2304C15.0702 38.0795 15.4844 38.008 15.9003 38.02V38.02ZM90.0503 38.16C90.8594 38.1834 91.6275 38.5214 92.1914 39.1021C92.7553 39.6828 93.0706 40.4605 93.0703 41.27C93.0703 42.0948 92.7426 42.8859 92.1594 43.4691C91.5761 44.0523 90.7851 44.38 89.9603 44.38C89.1355 44.38 88.3444 44.0523 87.7612 43.4691C87.1779 42.8859 86.8503 42.0948 86.8503 41.27C86.8501 40.8539 86.9334 40.442 87.0953 40.0587C87.2572 39.6754 87.4944 39.3284 87.7928 39.0384C88.0911 38.7485 88.4447 38.5213 88.8325 38.3704C89.2202 38.2195 89.6344 38.148 90.0503 38.16V38.16ZM21.7603 38.66H27.1803V63.1H16.2403C14.8892 58.3554 14.4681 53.3944 15.0003 48.49L21.7003 45.51C23.1303 44.87 23.7803 43.2 23.1403 41.77L21.7603 38.66ZM44.3803 38.92H57.2903C57.9603 38.92 62.0003 39.69 62.0003 42.72C62.0003 45.23 58.9003 46.13 56.3503 46.13H44.3703L44.3803 38.92ZM44.3803 56.48H54.2703C55.1703 56.48 59.1003 56.74 60.3503 61.76C60.7403 63.3 61.6103 68.32 62.2003 69.93C62.7903 71.73 65.1803 75.33 67.7303 75.33H83.8703C82.7886 76.7786 81.6056 78.1487 80.3303 79.43L73.7603 78.02C72.2303 77.69 70.7203 78.67 70.3903 80.2L68.8303 87.48C63.8138 89.7524 58.366 90.9154 52.8589 90.8895C47.3518 90.8636 41.9151 89.6495 36.9203 87.33L35.3603 80.05C35.0303 78.52 33.5303 77.54 32.0003 77.87L25.5703 79.25C24.3771 78.0192 23.2679 76.7095 22.2503 75.33H53.5203C53.8703 75.33 54.1103 75.27 54.1103 74.94V63.88C54.1103 63.56 53.8703 63.49 53.5203 63.49H44.3703L44.3803 56.48ZM29.9503 81.81C30.7594 81.8334 31.5275 82.1714 32.0914 82.7521C32.6553 83.3328 32.9706 84.1105 32.9703 84.92C32.9703 85.7448 32.6426 86.5359 32.0594 87.1191C31.4761 87.7023 30.6851 88.03 29.8603 88.03C29.0355 88.03 28.2444 87.7023 27.6612 87.1191C27.0779 86.5359 26.7503 85.7448 26.7503 84.92C26.7501 84.5039 26.8334 84.092 26.9953 83.7087C27.1572 83.3254 27.3944 82.9784 27.6928 82.6884C27.9911 82.3984 28.3447 82.1713 28.7325 82.0204C29.1202 81.8695 29.5344 81.7979 29.9503 81.81V81.81ZM76.0003 81.95C76.8094 81.9734 77.5775 82.3114 78.1414 82.8921C78.7053 83.4728 79.0206 84.2505 79.0203 85.06C79.0203 85.8848 78.6926 86.6759 78.1094 87.2591C77.5261 87.8423 76.7351 88.17 75.9103 88.17C75.0855 88.17 74.2944 87.8423 73.7112 87.2591C73.1279 86.6759 72.8003 85.8848 72.8003 85.06C72.8001 84.6439 72.8834 84.232 73.0453 83.8487C73.2072 83.4654 73.4444 83.1184 73.7428 82.8284C74.0412 82.5384 74.3947 82.3113 74.7825 82.1604C75.1702 82.0095 75.5844 81.9379 76.0003 81.95V81.95Z" fill="black"/>
<path fill-rule="evenodd" clip-rule="evenodd" d="M97.6798 52.95C97.6798 64.7866 92.9777 76.1384 84.608 84.5082C76.2382 92.8779 64.8864 97.58 53.0498 97.58C41.2132 97.58 29.8614 92.8779 21.4916 84.5082C13.1219 76.1384 8.41981 64.7866 8.41981 52.95C8.41981 41.1134 13.1219 29.7616 21.4916 21.3918C29.8614 13.0221 41.2132 8.32001 53.0498 8.32001C64.8864 8.32001 76.2382 13.0221 84.608 21.3918C92.9777 29.7616 97.6798 41.1134 97.6798 52.95V52.95ZM96.8398 48.64L103.8 52.95L96.8398 57.26L102.82 62.85L95.1598 65.72L99.9398 72.37L91.8498 73.69L95.2498 81.15L87.0598 80.86L88.9398 88.84L80.9598 86.96L81.2498 95.15L73.7898 91.75L72.4698 99.84L65.8198 95.06L62.9498 102.72L57.3598 96.74L53.0498 103.7L48.7398 96.74L43.1498 102.72L40.2798 95.06L33.6298 99.84L32.3098 91.75L24.8498 95.15L25.1398 86.96L17.1598 88.84L19.0398 80.86L10.8498 81.15L14.2498 73.69L6.15981 72.37L10.9398 65.72L3.27981 62.85L9.25981 57.26L2.2998 52.95L9.25981 48.64L3.27981 43.05L10.9398 40.18L6.15981 33.53L14.2498 32.21L10.8498 24.75L19.0398 25.04L17.1598 17.06L25.1398 18.94L24.8498 10.75L32.3098 14.15L33.6298 6.06001L40.2798 10.84L43.1498 3.18001L48.7398 9.16001L53.0498 2.20001L57.3598 9.16001L62.9498 3.18001L65.8198 10.84L72.4698 6.06001L73.7898 14.15L81.2498 10.75L80.9598 18.94L88.9398 17.06L87.0598 25.04L95.2498 24.75L91.8498 32.21L99.9398 33.53L95.1598 40.18L102.82 43.05L96.8398 48.64Z" fill="black" stroke="black" stroke-width="3" stroke-linecap="round" stroke-linejoin="round"/>
</svg>
